<svg width="40" height="40" viewBox="0 0 40 40" fill="none" xmlns="http://www.w3.org/2000/svg">
<g id="Group">
<path id="Vector" d="M30.625 0H9.375C4.19733 0 0 4.19733 0 9.375V30.625C0 35.8027 4.19733 40 9.375 40H30.625C35.8027 40 40 35.8027 40 30.625V9.375C40 4.19733 35.8027 0 30.625 0Z" fill="#00005B"/>
<path id="Vector_2" d="M16.4308 24.3937H10.2308L8.96406 28.327C8.93077 28.477 8.79749 28.577 8.64749 28.5605H5.51406C5.33078 28.5605 5.28078 28.4605 5.33078 28.2605L10.6973 12.877C10.7473 12.7105 10.7973 12.5605 10.8641 12.3605C10.9308 12.0105 10.9641 11.6437 10.9641 11.277C10.9475 11.1937 11.0141 11.1105 11.0973 11.0938H15.4141C15.5308 11.0938 15.6141 11.1437 15.6308 11.227L21.7141 28.227C21.7641 28.4105 21.7141 28.4937 21.5475 28.4937H18.0641C17.9475 28.5105 17.8308 28.427 17.7975 28.3105L16.4308 24.3105V24.3937ZM11.1975 21.077H15.4308C15.3308 20.727 15.1973 20.3105 15.0473 19.877C14.8973 19.427 14.7473 18.9438 14.5973 18.4438C14.4308 17.927 14.2808 17.427 14.1141 16.9105C13.9473 16.3937 13.7975 15.9105 13.6641 15.427C13.5308 14.9605 13.4141 14.527 13.2973 14.127H13.2641C13.1141 14.8438 12.9308 15.5605 12.6973 16.277C12.4473 17.077 12.1973 17.9105 11.9308 18.7437C11.7141 19.5938 11.4475 20.377 11.1975 21.077ZM31.5308 22.8938H26.2475C26.3141 23.4105 26.4808 23.927 26.7641 24.377C27.0641 24.827 27.4808 25.177 27.9808 25.377C28.6475 25.6605 29.3808 25.8105 30.1141 25.7938C30.6975 25.777 31.2808 25.727 31.8475 25.6105C32.3558 25.5439 32.8539 25.4151 33.3308 25.227C33.4141 25.1605 33.4641 25.1938 33.4641 25.3605V27.9105C33.4641 27.977 33.4475 28.0437 33.4308 28.1105C33.3975 28.1605 33.3641 28.1938 33.3141 28.227C32.7811 28.4612 32.2214 28.6291 31.6475 28.727C30.8678 28.877 30.0745 28.944 29.2808 28.927C28.0141 28.927 26.9475 28.727 26.0808 28.3438C25.2641 27.9937 24.5475 27.4438 23.9808 26.7605C23.4531 26.1184 23.0618 25.3754 22.8308 24.577C22.5975 23.7937 22.4808 22.977 22.4808 22.1438C22.4808 21.2438 22.6141 20.3605 22.8975 19.4938C23.1632 18.6592 23.5877 17.8839 24.1475 17.2105C24.6975 16.5438 25.3808 16.0105 26.1641 15.627C26.9475 15.2438 27.8808 15.1105 28.9475 15.1105C29.8308 15.0938 30.7141 15.2605 31.5308 15.627C32.2141 15.927 32.8141 16.377 33.2808 16.9605C33.7141 17.527 34.0641 18.1605 34.2808 18.8605C34.4975 19.527 34.5975 20.2105 34.5975 20.8938C34.5975 21.2937 34.5808 21.6437 34.5641 21.9605C34.5308 22.277 34.5141 22.5105 34.4975 22.6605C34.4808 22.777 34.3808 22.877 34.2641 22.877C34.1641 22.877 33.9808 22.8938 33.7141 22.9105C33.4475 22.9437 33.1308 22.9605 32.7475 22.9605C32.3641 22.9605 31.9641 22.8938 31.5308 22.8938ZM26.2475 20.4605H29.7641C30.1975 20.4605 30.5141 20.4605 30.7141 20.4437C30.8475 20.427 30.9808 20.3938 31.0975 20.3105V20.1437C31.0981 19.9341 31.0644 19.7257 30.9975 19.527C30.6975 18.5938 29.8141 17.9605 28.8308 17.9938C28.3784 17.9684 27.9284 18.0745 27.5351 18.2993C27.1417 18.5241 26.8219 18.8579 26.6141 19.2605C26.4141 19.6438 26.2975 20.0438 26.2475 20.4605Z" fill="#9999FF"/>
</g>
</svg>
