<svg width="40" height="40" viewBox="0 0 40 40" fill="none" xmlns="http://www.w3.org/2000/svg">
<g id="skill-icons:figma-light" clip-path="url(#clip0_23_134)">
<g id="Group">
<path id="Vector" d="M30.625 0H9.375C4.19733 0 0 4.19733 0 9.375V30.625C0 35.8027 4.19733 40 9.375 40H30.625C35.8027 40 40 35.8027 40 30.625V9.375C40 4.19733 35.8027 0 30.625 0Z" fill="#0073A2"/>
<g id="Clip path group">
<mask id="mask0_23_134" style="mask-type:luminance" maskUnits="userSpaceOnUse" x="9" y="4" width="22" height="32">
<g id="skillIconsFigmaLight0">
<path id="Vector_2" d="M9.53125 4.375H30.3687V35.625H9.53125V4.375Z" fill="white"/>
</g>
</mask>
<g mask="url(#mask0_23_134)">
<g id="Group_2">
<path id="Vector_3" d="M14.7417 35.625C17.6167 35.625 19.95 33.2917 19.95 30.4167V25.2083H14.7417C11.8667 25.2083 9.53329 27.5417 9.53329 30.4167C9.53329 33.2917 11.8667 35.625 14.7417 35.625Z" fill="#0ACF83"/>
<path id="Vector_4" d="M9.53329 20C9.53329 17.125 11.8667 14.7917 14.7417 14.7917H19.95V25.2083H14.7417C11.8667 25.2083 9.53329 22.875 9.53329 20Z" fill="#A259FF"/>
<path id="Vector_5" d="M9.53329 9.58328C9.53329 6.70828 11.8667 4.375 14.7417 4.375H19.95V14.7917H14.7417C11.8667 14.7917 9.53329 12.4583 9.53329 9.58328Z" fill="#F24E1E"/>
<path id="Vector_6" d="M19.95 4.375H25.1583C28.0333 4.375 30.3667 6.70828 30.3667 9.58328C30.3667 12.4583 28.0333 14.7917 25.1583 14.7917H19.95V4.375Z" fill="#FF7262"/>
<path id="Vector_7" d="M30.3667 20C30.3667 22.875 28.0333 25.2083 25.1583 25.2083C22.2833 25.2083 19.95 22.875 19.95 20C19.95 17.125 22.2833 14.7917 25.1583 14.7917C28.0333 14.7917 30.3667 17.125 30.3667 20Z" fill="#1ABCFE"/>
</g>
</g>
</g>
</g>
</g>
<defs>
<clipPath id="clip0_23_134">
<rect width="40" height="40" fill="white"/>
</clipPath>
</defs>
</svg>
